<svg width="284" height="89" viewBox="0 0 284 89" fill="none" xmlns="http://www.w3.org/2000/svg">
<rect width="284" height="89" fill="#F5F5F5"/>
<g clip-path="url(#clip0_0_1)">
<rect width="284" height="89" fill="white"/>
<path d="M8.88587 7H70V24.6203H37.5L8.88587 7Z" stroke="#0060A7" stroke-width="3" stroke-linejoin="round"/>
<path d="M70 65V48.1139H35.0272L5 27.9241V42.2405L37.8533 65H70Z" stroke="#0060A7" stroke-width="3" stroke-linejoin="round"/>
<path d="M5 65H30.788L5 46.2785V65Z" stroke="#0060A7" stroke-width="3" stroke-linejoin="round"/>
<path d="M36.087 29.5556H61.7021L56.516 42.9747H36.087L5 22.7848V9.20253L36.087 29.5556Z" stroke="#0060A7" stroke-width="3" stroke-linejoin="round"/>
<path d="M97.44 15.16V33.8H117.76V39.8H97.44V59H120.16V65H90.16V9.16H120.16V15.16H97.44ZM130.856 42.92C130.856 38.44 131.762 34.52 133.576 31.16C135.389 27.7467 137.869 25.1067 141.016 23.24C144.216 21.3733 147.789 20.44 151.736 20.44C155.149 20.44 158.322 21.24 161.256 22.84C164.189 24.3867 166.429 26.44 167.976 29V5.8H175.336V65H167.976V56.76C166.536 59.3733 164.402 61.5333 161.576 63.24C158.749 64.8933 155.442 65.72 151.656 65.72C147.762 65.72 144.216 64.76 141.016 62.84C137.869 60.92 135.389 58.2267 133.576 54.76C131.762 51.2933 130.856 47.3467 130.856 42.92ZM167.976 43C167.976 39.6933 167.309 36.8133 165.976 34.36C164.642 31.9067 162.829 30.04 160.536 28.76C158.296 27.4267 155.816 26.76 153.096 26.76C150.376 26.76 147.896 27.4 145.656 28.68C143.416 29.96 141.629 31.8267 140.296 34.28C138.962 36.7333 138.296 39.6133 138.296 42.92C138.296 46.28 138.962 49.2133 140.296 51.72C141.629 54.1733 143.416 56.0667 145.656 57.4C147.896 58.68 150.376 59.32 153.096 59.32C155.816 59.32 158.296 58.68 160.536 57.4C162.829 56.0667 164.642 54.1733 165.976 51.72C167.309 49.2133 167.976 46.3067 167.976 43ZM193.798 14.04C192.411 14.04 191.238 13.56 190.278 12.6C189.318 11.64 188.838 10.4667 188.838 9.08C188.838 7.69333 189.318 6.52 190.278 5.56C191.238 4.6 192.411 4.12 193.798 4.12C195.131 4.12 196.251 4.6 197.158 5.56C198.118 6.52 198.598 7.69333 198.598 9.08C198.598 10.4667 198.118 11.64 197.158 12.6C196.251 13.56 195.131 14.04 193.798 14.04ZM197.318 21.16V65H190.038V21.16H197.318ZM229.966 27.16H220.766V65H213.486V27.16H207.806V21.16H213.486V18.04C213.486 13.1333 214.739 9.56 217.246 7.32C219.806 5.02666 223.886 3.88 229.486 3.88V9.96C226.286 9.96 224.019 10.6 222.686 11.88C221.406 13.1067 220.766 15.16 220.766 18.04V21.16H229.966V27.16ZM278.614 21.16L252.214 85.64H244.694L253.334 64.52L235.654 21.16H243.734L257.494 56.68L271.094 21.16H278.614Z" fill="black"/>
<path d="M97.44 15.16V14.16H96.44V15.16H97.44ZM97.44 33.8H96.44V34.8H97.44V33.8ZM117.76 33.8H118.76V32.8H117.76V33.8ZM117.76 39.8V40.8H118.76V39.8H117.76ZM97.44 39.8V38.8H96.44V39.8H97.44ZM97.44 59H96.44V60H97.44V59ZM120.16 59H121.16V58H120.16V59ZM120.16 65V66H121.16V65H120.16ZM90.16 65H89.16V66H90.16V65ZM90.16 9.16V8.16H89.16V9.16H90.16ZM120.16 9.16H121.16V8.16H120.16V9.16ZM120.16 15.16V16.16H121.16V15.16H120.16ZM96.44 15.16V33.8H98.44V15.16H96.44ZM97.44 34.8H117.76V32.8H97.44V34.8ZM116.76 33.8V39.8H118.76V33.8H116.76ZM117.76 38.8H97.44V40.8H117.76V38.8ZM96.44 39.8V59H98.44V39.8H96.44ZM97.44 60H120.16V58H97.44V60ZM119.16 59V65H121.16V59H119.16ZM120.16 64H90.16V66H120.16V64ZM91.16 65V9.16H89.16V65H91.16ZM90.16 10.16H120.16V8.16H90.16V10.16ZM119.16 9.16V15.16H121.16V9.16H119.16ZM120.16 14.16H97.44V16.16H120.16V14.16ZM133.576 31.16L134.456 31.6349L134.459 31.6292L133.576 31.16ZM141.016 23.24L140.512 22.3762L140.505 22.3799L141.016 23.24ZM161.256 22.84L160.777 23.718L160.789 23.7246L161.256 22.84ZM167.976 29L167.12 29.5171L168.976 32.589V29H167.976ZM167.976 5.8V4.8H166.976V5.8H167.976ZM175.336 5.8H176.336V4.8H175.336V5.8ZM175.336 65V66H176.336V65H175.336ZM167.976 65H166.976V66H167.976V65ZM167.976 56.76H168.976L167.1 56.2774L167.976 56.76ZM161.576 63.24L162.081 64.1033L162.092 64.0961L161.576 63.24ZM141.016 62.84L140.495 63.6937L140.501 63.6975L141.016 62.84ZM133.576 54.76L134.462 54.2965L134.462 54.2965L133.576 54.76ZM160.536 28.76L160.024 29.6193L160.036 29.6264L160.048 29.6332L160.536 28.76ZM145.656 28.68L145.159 27.8118L145.159 27.8118L145.656 28.68ZM140.296 34.28L141.174 34.7575L141.174 34.7575L140.296 34.28ZM140.296 51.72L139.413 52.1896L139.417 52.1975L140.296 51.72ZM145.656 57.4L145.144 58.2593L145.152 58.2638L145.159 58.2682L145.656 57.4ZM160.536 57.4L161.032 58.2683L161.038 58.2645L160.536 57.4ZM165.976 51.72L166.854 52.1975L166.859 52.1896L165.976 51.72ZM131.856 42.92C131.856 38.577 132.734 34.8256 134.456 31.6349L132.696 30.6851C130.791 34.2144 129.856 38.303 129.856 42.92H131.856ZM134.459 31.6292C136.191 28.3683 138.546 25.8677 141.526 24.1001L140.505 22.3799C137.192 24.3456 134.587 27.125 132.693 30.6908L134.459 31.6292ZM141.519 24.1038C144.557 22.3322 147.954 21.44 151.736 21.44V19.44C147.624 19.44 143.875 20.4145 140.512 22.3762L141.519 24.1038ZM151.736 21.44C154.985 21.44 157.994 22.1998 160.777 23.7179L161.734 21.9621C158.651 20.2802 155.313 19.44 151.736 19.44V21.44ZM160.789 23.7246C163.58 25.1959 165.677 27.1293 167.12 29.5171L168.832 28.4829C167.181 25.7507 164.798 23.5774 161.722 21.9554L160.789 23.7246ZM168.976 29V5.8H166.976V29H168.976ZM167.976 6.8H175.336V4.8H167.976V6.8ZM174.336 5.8V65H176.336V5.8H174.336ZM175.336 64H167.976V66H175.336V64ZM168.976 65V56.76H166.976V65H168.976ZM167.1 56.2774C165.753 58.7209 163.751 60.7581 161.059 62.3839L162.092 64.0961C165.053 62.3085 167.318 60.0258 168.851 57.2426L167.1 56.2774ZM161.071 62.3768C158.42 63.9273 155.293 64.72 151.656 64.72V66.72C155.592 66.72 159.078 65.8593 162.081 64.1032L161.071 62.3768ZM151.656 64.72C147.935 64.72 144.568 63.8051 141.53 61.9825L140.501 63.6975C143.863 65.7149 147.589 66.72 151.656 66.72V64.72ZM141.536 61.9864C138.554 60.1667 136.196 57.6127 134.462 54.2965L132.69 55.2235C134.582 58.8407 137.184 61.6733 140.495 63.6936L141.536 61.9864ZM134.462 54.2965C132.733 50.9907 131.856 47.2067 131.856 42.92H129.856C129.856 47.4866 130.792 51.5959 132.69 55.2235L134.462 54.2965ZM168.976 43C168.976 39.5573 168.281 36.5072 166.854 33.8825L165.097 34.8375C166.337 37.1195 166.976 39.8294 166.976 43H168.976ZM166.854 33.8825C165.437 31.2739 163.492 29.2649 161.023 27.8868L160.048 29.6332C162.166 30.8151 163.848 32.5395 165.097 34.8375L166.854 33.8825ZM161.047 27.9007C158.646 26.4712 155.988 25.76 153.096 25.76V27.76C155.644 27.76 157.946 28.3821 160.024 29.6193L161.047 27.9007ZM153.096 25.76C150.211 25.76 147.559 26.4407 145.159 27.8118L146.152 29.5482C148.232 28.3593 150.54 27.76 153.096 27.76V25.76ZM145.159 27.8118C142.745 29.1915 140.831 31.1999 139.417 33.8025L141.174 34.7575C142.426 32.4535 144.086 30.7285 146.152 29.5482L145.159 27.8118ZM139.417 33.8025C137.991 36.4272 137.296 39.4773 137.296 42.92H139.296C139.296 39.7494 139.934 37.0395 141.174 34.7575L139.417 33.8025ZM137.296 42.92C137.296 46.4138 137.99 49.514 139.413 52.1896L141.178 51.2504C139.935 48.9127 139.296 46.1462 139.296 42.92H137.296ZM139.417 52.1975C140.83 54.7971 142.739 56.8275 145.144 58.2593L146.167 56.5407C144.093 55.3059 142.428 53.5495 141.174 51.2425L139.417 52.1975ZM145.159 58.2682C147.559 59.6393 150.211 60.32 153.096 60.32V58.32C150.54 58.32 148.232 57.7207 146.152 56.5318L145.159 58.2682ZM153.096 60.32C155.98 60.32 158.632 59.6393 161.032 58.2682L160.039 56.5318C157.959 57.7207 155.651 58.32 153.096 58.32V60.32ZM161.038 58.2645C163.498 56.8341 165.438 54.803 166.854 52.1975L165.097 51.2425C163.846 53.5436 162.159 55.2992 160.033 56.5355L161.038 58.2645ZM166.859 52.1896C168.281 49.5162 168.976 46.4434 168.976 43H166.976C166.976 46.17 166.337 48.9104 165.093 51.2504L166.859 52.1896ZM190.278 12.6L190.985 11.8929L190.985 11.8929L190.278 12.6ZM190.278 5.56L190.985 6.2671L190.985 6.2671L190.278 5.56ZM197.158 5.56L196.431 6.24662L196.441 6.257L196.451 6.2671L197.158 5.56ZM197.158 12.6L196.451 11.8929L196.441 11.903L196.431 11.9134L197.158 12.6ZM197.318 21.16H198.318V20.16H197.318V21.16ZM197.318 65V66H198.318V65H197.318ZM190.038 65H189.038V66H190.038V65ZM190.038 21.16V20.16H189.038V21.16H190.038ZM193.798 13.04C192.67 13.04 191.753 12.6609 190.985 11.8929L189.571 13.3071C190.723 14.4591 192.153 15.04 193.798 15.04V13.04ZM190.985 11.8929C190.217 11.1249 189.838 10.2078 189.838 9.08H187.838C187.838 10.7255 188.419 12.1551 189.571 13.3071L190.985 11.8929ZM189.838 9.08C189.838 7.95219 190.217 7.03512 190.985 6.2671L189.571 4.85289C188.419 6.00487 187.838 7.43447 187.838 9.08H189.838ZM190.985 6.2671C191.753 5.49909 192.67 5.12 193.798 5.12V3.12C192.153 3.12 190.723 3.70091 189.571 4.85289L190.985 6.2671ZM193.798 5.12C194.859 5.12 195.715 5.48884 196.431 6.24662L197.885 4.87337C196.787 3.71115 195.404 3.12 193.798 3.12V5.12ZM196.451 6.2671C197.219 7.03512 197.598 7.95219 197.598 9.08H199.598C199.598 7.43447 199.017 6.00487 197.865 4.85289L196.451 6.2671ZM197.598 9.08C197.598 10.2078 197.219 11.1249 196.451 11.8929L197.865 13.3071C199.017 12.1551 199.598 10.7255 199.598 9.08H197.598ZM196.431 11.9134C195.715 12.6712 194.859 13.04 193.798 13.04V15.04C195.404 15.04 196.787 14.4488 197.885 13.2866L196.431 11.9134ZM196.318 21.16V65H198.318V21.16H196.318ZM197.318 64H190.038V66H197.318V64ZM191.038 65V21.16H189.038V65H191.038ZM190.038 22.16H197.318V20.16H190.038V22.16ZM229.966 27.16V28.16H230.966V27.16H229.966ZM220.766 27.16V26.16H219.766V27.16H220.766ZM220.766 65V66H221.766V65H220.766ZM213.486 65H212.486V66H213.486V65ZM213.486 27.16H214.486V26.16H213.486V27.16ZM207.806 27.16H206.806V28.16H207.806V27.16ZM207.806 21.16V20.16H206.806V21.16H207.806ZM213.486 21.16V22.16H214.486V21.16H213.486ZM217.246 7.32L217.912 8.06566L217.913 8.06483L217.246 7.32ZM229.486 3.88H230.486V2.88H229.486V3.88ZM229.486 9.96V10.96H230.486V9.96H229.486ZM222.686 11.88L223.378 12.602L223.378 12.6014L222.686 11.88ZM220.766 21.16H219.766V22.16H220.766V21.16ZM229.966 21.16H230.966V20.16H229.966V21.16ZM229.966 26.16H220.766V28.16H229.966V26.16ZM219.766 27.16V65H221.766V27.16H219.766ZM220.766 64H213.486V66H220.766V64ZM214.486 65V27.16H212.486V65H214.486ZM213.486 26.16H207.806V28.16H213.486V26.16ZM208.806 27.16V21.16H206.806V27.16H208.806ZM207.806 22.16H213.486V20.16H207.806V22.16ZM214.486 21.16V18.04H212.486V21.16H214.486ZM214.486 18.04C214.486 13.285 215.7 10.0424 217.912 8.06565L216.579 6.57434C213.778 9.0776 212.486 12.9817 212.486 18.04H214.486ZM217.913 8.06483C220.204 6.01226 223.986 4.88 229.486 4.88V2.88C223.785 2.88 219.407 4.04107 216.578 6.57516L217.913 8.06483ZM228.486 3.88V9.96H230.486V3.88H228.486ZM229.486 8.96C226.202 8.96 223.609 9.60746 221.993 11.1586L223.378 12.6014C224.429 11.5925 226.369 10.96 229.486 10.96V8.96ZM221.994 11.158C220.424 12.6626 219.766 15.0512 219.766 18.04H221.766C221.766 15.2688 222.388 13.5507 223.378 12.602L221.994 11.158ZM219.766 18.04V21.16H221.766V18.04H219.766ZM220.766 22.16H229.966V20.16H220.766V22.16ZM228.966 21.16V27.16H230.966V21.16H228.966ZM278.614 21.16L279.539 21.5389L280.104 20.16H278.614V21.16ZM252.214 85.64V86.64H252.885L253.139 86.0189L252.214 85.64ZM244.694 85.64L243.768 85.2614L243.204 86.64H244.694V85.64ZM253.334 64.52L254.259 64.8986L254.414 64.5206L254.26 64.1424L253.334 64.52ZM235.654 21.16V20.16H234.166L234.728 21.5376L235.654 21.16ZM243.734 21.16L244.666 20.7988L244.419 20.16H243.734V21.16ZM257.494 56.68L256.561 57.0412L257.499 59.4624L258.428 57.0376L257.494 56.68ZM271.094 21.16V20.16H270.406L270.16 20.8024L271.094 21.16ZM277.688 20.7811L251.288 85.2611L253.139 86.0189L279.539 21.5389L277.688 20.7811ZM252.214 84.64H244.694V86.64H252.214V84.64ZM245.619 86.0186L254.259 64.8986L252.408 64.1414L243.768 85.2614L245.619 86.0186ZM254.26 64.1424L236.58 20.7824L234.728 21.5376L252.408 64.8976L254.26 64.1424ZM235.654 22.16H243.734V20.16H235.654V22.16ZM242.801 21.5212L256.561 57.0412L258.426 56.3188L244.666 20.7988L242.801 21.5212ZM258.428 57.0376L272.028 21.5176L270.16 20.8024L256.56 56.3224L258.428 57.0376ZM271.094 22.16H278.614V20.16H271.094V22.16Z" fill="black"/>
<circle cx="193.5" cy="9.5" r="6.5" fill="#0060A7"/>
</g>
<defs>
<clipPath id="clip0_0_1">
<rect width="284" height="89" fill="white"/>
</clipPath>
</defs>
</svg>
