<svg width="407" height="104" viewBox="0 0 407 104" fill="none" xmlns="http://www.w3.org/2000/svg">
<rect width="407" height="104" fill="#F5F5F5"/>
<g clip-path="url(#clip0_0_1)">
<rect width="407" height="104" fill="white"/>
<path d="M15.6196 11H104V35.6076H57L15.6196 11Z" fill="#1B5EA7"/>
<path d="M104 92V68.4177H53.4239L10 40.2215V60.2152L57.5109 92H104Z" fill="#1B5EA7"/>
<path d="M10 92H47.2935L10 65.8544V92Z" fill="#1B5EA7"/>
<path d="M54.9565 42.5H92L84.5 61.2405H54.9565L10 33.0443V14.0759L54.9565 42.5Z" fill="#1B5EA7"/>
<path d="M121.75 69V10.8182H163.682V23.5455H137.545V33.5455H161.523V46.2727H137.545V56.2727H163.568V69H121.75ZM203.902 69H181.516V10.8182H203.675C209.66 10.8182 214.83 11.983 219.186 14.3125C223.561 16.6231 226.932 19.9564 229.3 24.3125C231.686 28.6496 232.879 33.8485 232.879 39.9091C232.879 45.9697 231.696 51.178 229.328 55.5341C226.961 59.8712 223.608 63.2045 219.271 65.5341C214.934 67.8447 209.811 69 203.902 69ZM197.311 55.5909H203.334C206.213 55.5909 208.665 55.1269 210.692 54.1989C212.737 53.2708 214.29 51.6705 215.351 49.3977C216.43 47.125 216.97 43.9621 216.97 39.9091C216.97 35.8561 216.421 32.6932 215.322 30.4205C214.243 28.1477 212.652 26.5473 210.55 25.6193C208.466 24.6913 205.91 24.2273 202.879 24.2273H197.311V55.5909ZM265.983 10.8182V69H250.188V10.8182H265.983ZM283.469 69V10.8182H324.378V23.5455H299.264V33.5455H321.878V46.2727H299.264V69H283.469ZM337.801 10.8182H355.415L366.778 34.4545H367.233L378.597 10.8182H396.21L374.847 50.7045V69H359.165V50.7045L337.801 10.8182Z" fill="black"/>
<path d="M132.705 82C132.548 81.5218 132.342 81.0933 132.087 80.7145C131.836 80.331 131.535 80.0043 131.185 79.7344C130.839 79.4645 130.446 79.2585 130.006 79.1165C129.565 78.9744 129.082 78.9034 128.557 78.9034C127.695 78.9034 126.911 79.1259 126.206 79.571C125.5 80.0161 124.939 80.6719 124.523 81.5384C124.106 82.4048 123.898 83.4678 123.898 84.7273C123.898 85.9867 124.108 87.0497 124.53 87.9162C124.951 88.7827 125.522 89.4384 126.241 89.8835C126.961 90.3286 127.771 90.5511 128.67 90.5511C129.504 90.5511 130.238 90.3736 130.872 90.0185C131.511 89.6586 132.009 89.152 132.364 88.4986C132.723 87.8404 132.903 87.0663 132.903 86.1761L133.443 86.2898H129.068V84.7273H134.608V86.2898C134.608 87.4877 134.352 88.5294 133.841 89.4148C133.334 90.3002 132.634 90.9867 131.739 91.4744C130.848 91.9574 129.826 92.1989 128.67 92.1989C127.383 92.1989 126.251 91.8958 125.276 91.2898C124.305 90.6837 123.547 89.822 123.003 88.7045C122.463 87.5871 122.193 86.2614 122.193 84.7273C122.193 83.5767 122.347 82.5421 122.655 81.6236C122.967 80.7003 123.408 79.9143 123.976 79.2656C124.544 78.617 125.216 78.1198 125.993 77.7741C126.769 77.4285 127.624 77.2557 128.557 77.2557C129.324 77.2557 130.039 77.3717 130.702 77.6037C131.369 77.831 131.964 78.1553 132.484 78.5767C133.01 78.9934 133.448 79.4929 133.798 80.0753C134.149 80.6529 134.39 81.2945 134.523 82H132.705ZM141.297 92V81.0909H142.917V82.7386H143.03C143.229 82.1989 143.589 81.7609 144.11 81.4247C144.631 81.0885 145.218 80.9205 145.871 80.9205C145.994 80.9205 146.148 80.9228 146.333 80.9276C146.518 80.9323 146.657 80.9394 146.752 80.9489V82.6534C146.695 82.6392 146.565 82.6179 146.361 82.5895C146.162 82.5563 145.952 82.5398 145.729 82.5398C145.199 82.5398 144.725 82.651 144.309 82.8736C143.897 83.0914 143.57 83.3944 143.329 83.7827C143.092 84.1662 142.974 84.6042 142.974 85.0966V92H141.297ZM156.739 92.2273C155.754 92.2273 154.89 91.9929 154.146 91.5241C153.408 91.0554 152.83 90.3996 152.413 89.5568C152.001 88.714 151.795 87.7292 151.795 86.6023C151.795 85.4659 152.001 84.474 152.413 83.6264C152.83 82.7789 153.408 82.1207 154.146 81.652C154.89 81.1832 155.754 80.9489 156.739 80.9489C157.723 80.9489 158.585 81.1832 159.324 81.652C160.067 82.1207 160.645 82.7789 161.057 83.6264C161.473 84.474 161.682 85.4659 161.682 86.6023C161.682 87.7292 161.473 88.714 161.057 89.5568C160.645 90.3996 160.067 91.0554 159.324 91.5241C158.585 91.9929 157.723 92.2273 156.739 92.2273ZM156.739 90.7216C157.487 90.7216 158.102 90.5298 158.585 90.1463C159.068 89.7628 159.426 89.2585 159.658 88.6335C159.89 88.0085 160.006 87.3314 160.006 86.6023C160.006 85.8731 159.89 85.1937 159.658 84.5639C159.426 83.9342 159.068 83.4252 158.585 83.0369C158.102 82.6487 157.487 82.4545 156.739 82.4545C155.99 82.4545 155.375 82.6487 154.892 83.0369C154.409 83.4252 154.052 83.9342 153.82 84.5639C153.588 85.1937 153.472 85.8731 153.472 86.6023C153.472 87.3314 153.588 88.0085 153.82 88.6335C154.052 89.2585 154.409 89.7628 154.892 90.1463C155.375 90.5298 155.99 90.7216 156.739 90.7216ZM175.015 87.5398V81.0909H176.691V92H175.015V90.1534H174.902C174.646 90.7074 174.248 91.1785 173.709 91.5668C173.169 91.9503 172.487 92.142 171.663 92.142C170.981 92.142 170.375 91.9929 169.845 91.6946C169.315 91.3916 168.898 90.937 168.595 90.331C168.292 89.7202 168.14 88.9508 168.14 88.0227V81.0909H169.816V87.9091C169.816 88.7045 170.039 89.339 170.484 89.8125C170.934 90.286 171.507 90.5227 172.203 90.5227C172.62 90.5227 173.043 90.4162 173.474 90.2031C173.91 89.9901 174.274 89.6634 174.568 89.223C174.866 88.7827 175.015 88.2216 175.015 87.5398ZM183.661 96.0909V81.0909H185.281V82.8239H185.48C185.603 82.6345 185.773 82.393 185.991 82.0994C186.214 81.8011 186.531 81.536 186.943 81.304C187.359 81.0672 187.923 80.9489 188.633 80.9489C189.552 80.9489 190.361 81.1785 191.062 81.6378C191.763 82.0971 192.31 82.7481 192.703 83.5909C193.096 84.4337 193.292 85.428 193.292 86.5739C193.292 87.7292 193.096 88.7306 192.703 89.5781C192.31 90.4209 191.765 91.0743 191.069 91.5384C190.373 91.9976 189.571 92.2273 188.661 92.2273C187.961 92.2273 187.4 92.1113 186.978 91.8793C186.557 91.6425 186.232 91.375 186.005 91.0767C185.778 90.7737 185.603 90.5227 185.48 90.3239H185.338V96.0909H183.661ZM185.309 86.5455C185.309 87.3693 185.43 88.0961 185.671 88.7259C185.913 89.3509 186.266 89.8409 186.73 90.196C187.194 90.5464 187.762 90.7216 188.434 90.7216C189.135 90.7216 189.72 90.5369 190.188 90.1676C190.662 89.7936 191.017 89.2917 191.254 88.6619C191.495 88.0275 191.616 87.322 191.616 86.5455C191.616 85.7784 191.498 85.0871 191.261 84.4716C191.029 83.8513 190.676 83.3613 190.203 83.0014C189.734 82.6368 189.144 82.4545 188.434 82.4545C187.752 82.4545 187.179 82.6274 186.715 82.973C186.251 83.3139 185.901 83.7921 185.664 84.4077C185.428 85.0185 185.309 85.7311 185.309 86.5455ZM213.706 92.2273C212.721 92.2273 211.857 91.9929 211.113 91.5241C210.375 91.0554 209.797 90.3996 209.38 89.5568C208.969 88.714 208.763 87.7292 208.763 86.6023C208.763 85.4659 208.969 84.474 209.38 83.6264C209.797 82.7789 210.375 82.1207 211.113 81.652C211.857 81.1832 212.721 80.9489 213.706 80.9489C214.691 80.9489 215.552 81.1832 216.291 81.652C217.034 82.1207 217.612 82.7789 218.024 83.6264C218.441 84.474 218.649 85.4659 218.649 86.6023C218.649 87.7292 218.441 88.714 218.024 89.5568C217.612 90.3996 217.034 91.0554 216.291 91.5241C215.552 91.9929 214.691 92.2273 213.706 92.2273ZM213.706 90.7216C214.454 90.7216 215.069 90.5298 215.552 90.1463C216.035 89.7628 216.393 89.2585 216.625 88.6335C216.857 88.0085 216.973 87.3314 216.973 86.6023C216.973 85.8731 216.857 85.1937 216.625 84.5639C216.393 83.9342 216.035 83.4252 215.552 83.0369C215.069 82.6487 214.454 82.4545 213.706 82.4545C212.958 82.4545 212.342 82.6487 211.859 83.0369C211.376 83.4252 211.019 83.9342 210.787 84.5639C210.555 85.1937 210.439 85.8731 210.439 86.6023C210.439 87.3314 210.555 88.0085 210.787 88.6335C211.019 89.2585 211.376 89.7628 211.859 90.1463C212.342 90.5298 212.958 90.7216 213.706 90.7216ZM229.965 81.0909V82.5114H224.085V81.0909H229.965ZM225.846 92V79.5852C225.846 78.9602 225.993 78.4394 226.287 78.0227C226.58 77.6061 226.961 77.2936 227.43 77.0852C227.899 76.8769 228.394 76.7727 228.914 76.7727C229.326 76.7727 229.662 76.8059 229.923 76.8722C230.183 76.9384 230.377 77 230.505 77.0568L230.022 78.5057C229.937 78.4773 229.819 78.4418 229.667 78.3991C229.52 78.3565 229.326 78.3352 229.085 78.3352C228.531 78.3352 228.131 78.4749 227.885 78.7543C227.643 79.0336 227.522 79.4432 227.522 79.983V92H225.846ZM257.671 82H255.91C255.806 81.4934 255.624 81.0483 255.363 80.6648C255.107 80.2812 254.795 79.9593 254.426 79.6989C254.061 79.4337 253.656 79.2348 253.211 79.1023C252.766 78.9697 252.302 78.9034 251.819 78.9034C250.938 78.9034 250.141 79.1259 249.426 79.571C248.715 80.0161 248.15 80.6719 247.728 81.5384C247.312 82.4048 247.103 83.4678 247.103 84.7273C247.103 85.9867 247.312 87.0497 247.728 87.9162C248.15 88.7827 248.715 89.4384 249.426 89.8835C250.141 90.3286 250.938 90.5511 251.819 90.5511C252.302 90.5511 252.766 90.4848 253.211 90.3523C253.656 90.2197 254.061 90.0232 254.426 89.7628C254.795 89.4976 255.107 89.1733 255.363 88.7898C255.624 88.4015 255.806 87.9564 255.91 87.4545H257.671C257.539 88.1979 257.297 88.8632 256.947 89.4503C256.597 90.0374 256.161 90.5369 255.64 90.9489C255.119 91.3561 254.535 91.6662 253.886 91.8793C253.242 92.0923 252.553 92.1989 251.819 92.1989C250.579 92.1989 249.475 91.8958 248.509 91.2898C247.544 90.6837 246.784 89.822 246.23 88.7045C245.676 87.5871 245.399 86.2614 245.399 84.7273C245.399 83.1932 245.676 81.8674 246.23 80.75C246.784 79.6326 247.544 78.7708 248.509 78.1648C249.475 77.5587 250.579 77.2557 251.819 77.2557C252.553 77.2557 253.242 77.3622 253.886 77.5753C254.535 77.7884 255.119 78.1009 255.64 78.5128C256.161 78.92 256.597 79.4171 256.947 80.0043C257.297 80.5866 257.539 81.2519 257.671 82ZM268.622 92.2273C267.637 92.2273 266.773 91.9929 266.03 91.5241C265.291 91.0554 264.714 90.3996 264.297 89.5568C263.885 88.714 263.679 87.7292 263.679 86.6023C263.679 85.4659 263.885 84.474 264.297 83.6264C264.714 82.7789 265.291 82.1207 266.03 81.652C266.773 81.1832 267.637 80.9489 268.622 80.9489C269.607 80.9489 270.469 81.1832 271.207 81.652C271.951 82.1207 272.528 82.7789 272.94 83.6264C273.357 84.474 273.565 85.4659 273.565 86.6023C273.565 87.7292 273.357 88.714 272.94 89.5568C272.528 90.3996 271.951 91.0554 271.207 91.5241C270.469 91.9929 269.607 92.2273 268.622 92.2273ZM268.622 90.7216C269.37 90.7216 269.986 90.5298 270.469 90.1463C270.952 89.7628 271.309 89.2585 271.541 88.6335C271.773 88.0085 271.889 87.3314 271.889 86.6023C271.889 85.8731 271.773 85.1937 271.541 84.5639C271.309 83.9342 270.952 83.4252 270.469 83.0369C269.986 82.6487 269.37 82.4545 268.622 82.4545C267.874 82.4545 267.259 82.6487 266.776 83.0369C266.293 83.4252 265.935 83.9342 265.703 84.5639C265.471 85.1937 265.355 85.8731 265.355 86.6023C265.355 87.3314 265.471 88.0085 265.703 88.6335C265.935 89.2585 266.293 89.7628 266.776 90.1463C267.259 90.5298 267.874 90.7216 268.622 90.7216ZM280.024 92V81.0909H281.643V82.7955H281.785C282.013 82.2131 282.38 81.7609 282.886 81.4389C283.393 81.1122 284.001 80.9489 284.711 80.9489C285.431 80.9489 286.03 81.1122 286.508 81.4389C286.991 81.7609 287.368 82.2131 287.638 82.7955H287.751C288.031 82.232 288.45 81.7846 289.008 81.4531C289.567 81.117 290.237 80.9489 291.018 80.9489C291.994 80.9489 292.791 81.2543 293.412 81.8651C294.032 82.4711 294.342 83.4157 294.342 84.6989V92H292.666V84.6989C292.666 83.8939 292.446 83.3187 292.005 82.973C291.565 82.6274 291.047 82.4545 290.45 82.4545C289.683 82.4545 289.089 82.6866 288.667 83.1506C288.246 83.6098 288.035 84.1922 288.035 84.8977V92H286.331V84.5284C286.331 83.9081 286.13 83.4086 285.727 83.0298C285.325 82.6463 284.806 82.4545 284.172 82.4545C283.736 82.4545 283.329 82.5705 282.95 82.8026C282.576 83.0346 282.273 83.3565 282.041 83.7685C281.814 84.1757 281.7 84.6468 281.7 85.1818V92H280.024ZM301.307 96.0909V81.0909H302.926V82.8239H303.125C303.248 82.6345 303.418 82.393 303.636 82.0994C303.859 81.8011 304.176 81.536 304.588 81.304C305.005 81.0672 305.568 80.9489 306.278 80.9489C307.197 80.9489 308.007 81.1785 308.707 81.6378C309.408 82.0971 309.955 82.7481 310.348 83.5909C310.741 84.4337 310.937 85.428 310.937 86.5739C310.937 87.7292 310.741 88.7306 310.348 89.5781C309.955 90.4209 309.41 91.0743 308.714 91.5384C308.018 91.9976 307.216 92.2273 306.307 92.2273C305.606 92.2273 305.045 92.1113 304.624 91.8793C304.202 91.6425 303.878 91.375 303.651 91.0767C303.423 90.7737 303.248 90.5227 303.125 90.3239H302.983V96.0909H301.307ZM302.954 86.5455C302.954 87.3693 303.075 88.0961 303.317 88.7259C303.558 89.3509 303.911 89.8409 304.375 90.196C304.839 90.5464 305.407 90.7216 306.079 90.7216C306.78 90.7216 307.365 90.5369 307.834 90.1676C308.307 89.7936 308.662 89.2917 308.899 88.6619C309.141 88.0275 309.261 87.322 309.261 86.5455C309.261 85.7784 309.143 85.0871 308.906 84.4716C308.674 83.8513 308.321 83.3613 307.848 83.0014C307.379 82.6368 306.79 82.4545 306.079 82.4545C305.398 82.4545 304.825 82.6274 304.361 82.973C303.897 83.3139 303.546 83.7921 303.31 84.4077C303.073 85.0185 302.954 85.7311 302.954 86.5455ZM320.604 92.2557C319.913 92.2557 319.286 92.1255 318.722 91.8651C318.159 91.5999 317.711 91.2188 317.38 90.7216C317.049 90.2197 316.883 89.6136 316.883 88.9034C316.883 88.2784 317.006 87.7718 317.252 87.3835C317.498 86.9905 317.827 86.6828 318.239 86.4602C318.651 86.2377 319.106 86.072 319.603 85.9631C320.105 85.8494 320.609 85.7595 321.116 85.6932C321.779 85.608 322.316 85.544 322.728 85.5014C323.145 85.4541 323.448 85.3759 323.637 85.267C323.831 85.1581 323.928 84.9687 323.928 84.6989V84.642C323.928 83.9413 323.737 83.3968 323.353 83.0085C322.974 82.6203 322.399 82.4261 321.627 82.4261C320.827 82.4261 320.2 82.6013 319.745 82.9517C319.291 83.3021 318.971 83.6761 318.786 84.0739L317.195 83.5057C317.479 82.8428 317.858 82.3267 318.332 81.9574C318.81 81.5833 319.331 81.3229 319.894 81.1761C320.462 81.0246 321.021 80.9489 321.57 80.9489C321.921 80.9489 322.323 80.9915 322.778 81.0767C323.237 81.1572 323.68 81.3253 324.106 81.581C324.537 81.8366 324.894 82.2225 325.178 82.7386C325.462 83.2547 325.604 83.946 325.604 84.8125V92H323.928V90.5227H323.843C323.729 90.7595 323.54 91.0128 323.275 91.2827C323.01 91.5526 322.657 91.7822 322.217 91.9716C321.776 92.161 321.239 92.2557 320.604 92.2557ZM320.86 90.75C321.523 90.75 322.082 90.6198 322.536 90.3594C322.996 90.099 323.341 89.7628 323.573 89.3509C323.81 88.9389 323.928 88.5057 323.928 88.0511V86.517C323.857 86.6023 323.701 86.6804 323.46 86.7514C323.223 86.8177 322.948 86.8769 322.636 86.929C322.328 86.9763 322.027 87.0189 321.734 87.0568C321.445 87.09 321.211 87.1184 321.031 87.142C320.595 87.1989 320.188 87.2912 319.809 87.419C319.435 87.5421 319.132 87.7292 318.9 87.9801C318.673 88.2263 318.559 88.5625 318.559 88.9886C318.559 89.571 318.774 90.0114 319.205 90.3097C319.641 90.6032 320.193 90.75 320.86 90.75ZM334.24 85.4375V92H332.564V81.0909H334.183V82.7955H334.325C334.581 82.2415 334.969 81.7964 335.49 81.4602C336.011 81.1193 336.683 80.9489 337.507 80.9489C338.246 80.9489 338.892 81.1004 339.446 81.4034C340 81.7017 340.431 82.1562 340.739 82.767C341.046 83.3731 341.2 84.1402 341.2 85.0682V92H339.524V85.1818C339.524 84.3248 339.301 83.6572 338.856 83.179C338.411 82.696 337.801 82.4545 337.024 82.4545C336.489 82.4545 336.011 82.5705 335.589 82.8026C335.173 83.0346 334.844 83.3731 334.602 83.8182C334.361 84.2633 334.24 84.803 334.24 85.4375ZM348.163 92V81.0909H349.839V92H348.163ZM349.015 79.2727C348.689 79.2727 348.407 79.1615 348.17 78.9389C347.938 78.7164 347.822 78.4489 347.822 78.1364C347.822 77.8239 347.938 77.5563 348.17 77.3338C348.407 77.1113 348.689 77 349.015 77C349.342 77 349.621 77.1113 349.853 77.3338C350.09 77.5563 350.208 77.8239 350.208 78.1364C350.208 78.4489 350.09 78.7164 349.853 78.9389C349.621 79.1615 349.342 79.2727 349.015 79.2727ZM361.383 92.2273C360.332 92.2273 359.425 91.9953 358.663 91.5312C357.905 91.0625 357.32 90.4091 356.909 89.571C356.501 88.7282 356.298 87.7481 356.298 86.6307C356.298 85.5133 356.501 84.5284 356.909 83.6761C357.32 82.8191 357.893 82.1515 358.627 81.6733C359.366 81.1903 360.228 80.9489 361.212 80.9489C361.781 80.9489 362.342 81.0436 362.896 81.233C363.45 81.4223 363.954 81.7301 364.409 82.1562C364.863 82.5777 365.225 83.1364 365.495 83.8324C365.765 84.5284 365.9 85.3854 365.9 86.4034V87.1136H357.491V85.6648H364.195C364.195 85.0492 364.072 84.5 363.826 84.017C363.585 83.5341 363.239 83.1529 362.789 82.8736C362.344 82.5942 361.819 82.4545 361.212 82.4545C360.545 82.4545 359.967 82.6203 359.48 82.9517C358.997 83.2784 358.625 83.7045 358.364 84.2301C358.104 84.7557 357.974 85.3191 357.974 85.9205V86.8864C357.974 87.7102 358.116 88.4086 358.4 88.9815C358.689 89.5497 359.089 89.983 359.6 90.2812C360.112 90.5748 360.706 90.7216 361.383 90.7216C361.823 90.7216 362.221 90.66 362.576 90.5369C362.936 90.4091 363.246 90.2197 363.507 89.9688C363.767 89.7131 363.968 89.3958 364.11 89.017L365.73 89.4716C365.559 90.0208 365.273 90.5038 364.87 90.9205C364.468 91.3324 363.971 91.6544 363.379 91.8864C362.787 92.1136 362.122 92.2273 361.383 92.2273ZM380.077 83.5341L378.571 83.9602C378.477 83.7093 378.337 83.4654 378.152 83.2287C377.972 82.9872 377.726 82.7884 377.414 82.6321C377.101 82.4759 376.701 82.3977 376.213 82.3977C375.546 82.3977 374.989 82.5516 374.544 82.8594C374.104 83.1624 373.884 83.5483 373.884 84.017C373.884 84.4337 374.035 84.7628 374.338 85.0043C374.641 85.2457 375.115 85.447 375.759 85.608L377.378 86.0057C378.354 86.2424 379.08 86.6046 379.559 87.0923C380.037 87.5753 380.276 88.1979 380.276 88.9602C380.276 89.5852 380.096 90.1439 379.736 90.6364C379.381 91.1288 378.884 91.517 378.245 91.8011C377.605 92.0852 376.862 92.2273 376.014 92.2273C374.902 92.2273 373.981 91.9858 373.252 91.5028C372.523 91.0199 372.061 90.3144 371.867 89.3864L373.458 88.9886C373.609 89.5758 373.896 90.0161 374.317 90.3097C374.743 90.6032 375.3 90.75 375.986 90.75C376.767 90.75 377.388 90.5843 377.847 90.2528C378.311 89.9167 378.543 89.5142 378.543 89.0455C378.543 88.6667 378.41 88.3494 378.145 88.0938C377.88 87.8333 377.473 87.6392 376.924 87.5114L375.105 87.0852C374.106 86.8485 373.372 86.4815 372.904 85.9844C372.44 85.4825 372.208 84.8551 372.208 84.1023C372.208 83.4867 372.38 82.9422 372.726 82.4688C373.077 81.9953 373.552 81.6236 374.154 81.3537C374.76 81.0838 375.446 80.9489 376.213 80.9489C377.293 80.9489 378.14 81.1856 378.756 81.6591C379.376 82.1326 379.817 82.7576 380.077 83.5341Z" fill="black"/>
</g>
<defs>
<clipPath id="clip0_0_1">
<rect width="407" height="104" fill="white"/>
</clipPath>
</defs>
</svg>
